<?xml version="1.0" encoding="UTF-8"?>
<svg id="Layer_1" data-name="Layer 1" xmlns="http://www.w3.org/2000/svg" viewBox="0 0 459.23 405.53">
  <defs>
    <style>
      .cls-1 {
        fill: #d2232a;
      }

      .cls-1, .cls-2, .cls-3 {
        stroke-width: 0px;
      }

      .cls-2 {
        fill: #fff;
      }

      .cls-4 {
        fill: none;
        stroke: #d6d6d6;
        stroke-linecap: round;
        stroke-miterlimit: 10;
        stroke-width: 15px;
      }

      .cls-3 {
        fill: #d6d6d6;
      }
    </style>
  </defs>
  <circle class="cls-4" cx="229.61" cy="201.64" r="156"/>
  <g>
    <g>
      <path class="cls-2" d="m357.95,394.05c-19.21-.01-37.98-5.29-54.27-15.27-16.32-9.99-29.42-24.23-37.89-41.18l-19.7-39.46-1.9,3.87c-5.02,10.24-15.31,16.61-26.86,16.61s-21.77-6.33-26.81-16.51L73.84,66.25c-4.55-9.19-3.97-19.85,1.56-28.51,5.48-8.59,14.9-13.73,25.2-13.75h.17c19.23,0,38.03,5.29,54.34,15.29,16.34,10.01,29.44,24.29,37.89,41.29l12.22,24.59,1.77-3.59c5.05-10.23,15.36-16.59,26.9-16.59s21.82,6.33,26.88,16.53l124.07,250.12c4.58,9.23,4,19.93-1.55,28.63-5.51,8.63-14.98,13.78-25.32,13.78h-.02Z"/>
      <path class="cls-3" d="m100.77,31.49c17.85,0,35.29,4.9,50.42,14.18,15.14,9.28,27.27,22.5,35.09,38.23l18.96,38.16,8.47-17.17c3.78-7.65,11.51-12.41,20.18-12.41s16.37,4.74,20.16,12.36l124.07,250.12c3.4,6.85,2.97,14.8-1.16,21.27-4.12,6.46-11.23,10.32-19,10.32h-.02c-17.82-.01-35.24-4.91-50.36-14.16-15.12-9.25-27.25-22.44-35.09-38.14l-26.48-53.02-8.57,17.49c-3.75,7.65-11.46,12.41-20.12,12.41s-16.32-4.73-20.09-12.34L80.56,62.92c-3.37-6.82-2.94-14.73,1.16-21.15,4.1-6.43,11.16-10.27,18.89-10.28h.16m0-15h-.16c-12.89.02-24.68,6.46-31.54,17.22-6.95,10.89-7.68,24.3-1.96,35.87l116.68,235.86c6.31,12.76,19.16,20.68,33.53,20.68,11.01,0,21.12-4.64,28.08-12.55l13.67,27.37c9.09,18.21,23.16,33.5,40.68,44.23,17.48,10.7,37.59,16.36,58.18,16.37,12.95,0,24.78-6.45,31.67-17.25,6.98-10.94,7.71-24.39,1.95-36l-124.07-250.12c-6.33-12.77-19.21-20.7-33.59-20.7-10.92,0-20.95,4.56-27.93,12.33l-6.25-12.58c-9.07-18.26-23.14-33.6-40.69-44.35-17.5-10.72-37.64-16.39-58.26-16.39h0Z"/>
    </g>
    <path class="cls-1" d="m362.61,362.36l-124.07-250.12c-1.89-3.8-7.42-3.8-9.29,0l-22.96,46.54c-.49.99-.62,2.09-.42,3.15l-35.09-70.62c-13.07-26.29-40.3-42.96-70.14-42.91h0c-3.74,0-6.19,3.85-4.56,7.15l116.68,235.86c1.85,3.75,7.3,3.74,9.14-.02l22.91-46.76c.63-1.28.66-2.76.1-4.06l43.07,86.25c13.08,26.19,40.22,42.8,69.97,42.82h0c3.82,0,6.32-3.91,4.65-7.28Z"/>
  </g>
</svg>